<svg xmlns="http://www.w3.org/2000/svg" viewBox="0 0 1280 720" width="1280" height="720" role="img" aria-label="Backlighting — LIGHTING">
  <rect width="1280" height="720" fill="#f3efe6"/>
  <!-- art zone -->
  <svg x="0" y="0" width="1280" height="540" viewBox="0 0 1280 540">
    <rect width="1280" height="540" fill="#926e00"/>
    <defs><radialGradient id="lg" cx="90.6%" cy="16.7%" r="90%">
      <stop offset="0%" stop-color="#d9ca9e"/><stop offset="45%" stop-color="#9a7400"/><stop offset="100%" stop-color="#694f00"/>
    </radialGradient></defs><rect x="0" y="0" width="1280" height="540" fill="url(#lg)"/><line x1="1160" y1="90" x2="2630.0998667618624" y2="388.00399619259184" stroke="#cdba80" stroke-width="3" opacity="0.35"/><line x1="1160" y1="90" x2="2655.202559453929" y2="209.87204095375907" stroke="#cdba80" stroke-width="3" opacity="0.35"/><line x1="1160" y1="90" x2="2658.800159991467" y2="30.015998720048792" stroke="#cdba80" stroke-width="3" opacity="0.35"/><line x1="1160" y1="90" x2="2640.8409250634404" y2="-148.9773099213689" stroke="#cdba80" stroke-width="3" opacity="0.35"/><line x1="1160" y1="90" x2="2601.5831574661565" y2="-324.5334728461706" stroke="#cdba80" stroke-width="3" opacity="0.35"/><line x1="1160" y1="90" x2="2541.5914910043275" y2="-494.1275134629757" stroke="#cdba80" stroke-width="3" opacity="0.35"/><line x1="1160" y1="90" x2="2461.728769516475" y2="-655.3202067656051" stroke="#cdba80" stroke-width="3" opacity="0.35"/><line x1="1160" y1="90" x2="2363.143636826439" y2="-805.793162043588" stroke="#cdba80" stroke-width="3" opacity="0.35"/><line x1="1160" y1="90" x2="2247.2540161113575" y2="-943.382167665827" stroke="#cdba80" stroke-width="3" opacity="0.35"/><circle cx="1160" cy="90" r="46" fill="#f3efe6"/>
  </svg>
  <!-- caption band -->
  <rect x="0" y="540" width="1280" height="180" fill="#ece6d9"/>
  <rect x="0" y="540" width="1280" height="4" fill="#16130d"/>
  <rect x="0" y="0" width="18" height="720" fill="#9a7400"/>
  <text x="70" y="596" font-family="Inter, 'Helvetica Neue', Arial, sans-serif" font-size="26" font-weight="700" letter-spacing="4" fill="#9a7400">LIGHTING</text>
  <text x="70" y="672" font-family="Fraunces, Georgia, 'Times New Roman', serif" font-size="62" font-weight="600" fill="#16130d">Backlighting</text>
  <text x="1210" y="596" text-anchor="end" font-family="Inter, 'Helvetica Neue', Arial, sans-serif" font-size="24" font-weight="600" letter-spacing="3" fill="#4a4339">MODERATE</text>
</svg>
