<svg xmlns="http://www.w3.org/2000/svg" viewBox="0 0 1280 720" width="1280" height="720" role="img" aria-label="Direct Address — PERFORMANCE">
  <rect width="1280" height="720" fill="#f3efe6"/>
  <!-- art zone -->
  <svg x="0" y="0" width="1280" height="540" viewBox="0 0 1280 540">
    <rect width="1280" height="540" fill="#a9375f"/>
    <rect x="0" y="0" width="1280" height="540" fill="#b23a64"/><path d="M 395.77448215102777 480 A 135.79280853504315 135.79280853504315 0 0 1 667.3600992211141 480" stroke="#d99db2" stroke-width="4" fill="none" opacity="0.8"/><path d="M 339.8584588011727 480 A 191.70883188489825 191.70883188489825 0 0 1 723.2761225709692 480" stroke="#d99db2" stroke-width="4" fill="none" opacity="0.65"/><path d="M 261.0920412489213 480 A 270.4752494371496 270.4752494371496 0 0 1 802.0425401232205 480" stroke="#d99db2" stroke-width="4" fill="none" opacity="0.5"/><path d="M 179.9158800393343 480 A 351.6514106467366 351.6514106467366 0 0 1 883.2187013328075 480" stroke="#d99db2" stroke-width="4" fill="none" opacity="0.3500000000000001"/><circle cx="531.5672906860709" cy="230" r="46" fill="#f3efe6"/><path d="M 531.5672906860709 276 L 531.5672906860709 410 M 531.5672906860709 310 L 461.5672906860709 360 M 531.5672906860709 310 L 601.5672906860709 360 M 531.5672906860709 410 L 476.5672906860709 480 M 531.5672906860709 410 L 586.5672906860709 480" stroke="#f3efe6" stroke-width="14" fill="none" stroke-linecap="round"/>
  </svg>
  <!-- caption band -->
  <rect x="0" y="540" width="1280" height="180" fill="#ece6d9"/>
  <rect x="0" y="540" width="1280" height="4" fill="#16130d"/>
  <rect x="0" y="0" width="18" height="720" fill="#b23a64"/>
  <text x="70" y="596" font-family="Inter, 'Helvetica Neue', Arial, sans-serif" font-size="26" font-weight="700" letter-spacing="4" fill="#b23a64">PERFORMANCE</text>
  <text x="70" y="672" font-family="Fraunces, Georgia, 'Times New Roman', serif" font-size="62" font-weight="600" fill="#16130d">Direct Address</text>
  <text x="1210" y="596" text-anchor="end" font-family="Inter, 'Helvetica Neue', Arial, sans-serif" font-size="24" font-weight="600" letter-spacing="3" fill="#4a4339">EASY</text>
</svg>
